<?xml version="1.0" encoding="UTF-8"?>
<!DOCTYPE svg PUBLIC "-//W3C//DTD SVG 1.1//EN" "http://www.w3.org/Graphics/SVG/1.1/DTD/svg11.dtd">
<svg xmlns="http://www.w3.org/2000/svg" version="1.1" width="1172px" height="134px" style="shape-rendering:geometricPrecision; text-rendering:geometricPrecision; image-rendering:optimizeQuality; fill-rule:evenodd; clip-rule:evenodd" xmlns:xlink="http://www.w3.org/1999/xlink">
<g><path style="opacity:1" fill="#586597" d="M -0.5,-0.5 C 390.167,-0.5 780.833,-0.5 1171.5,-0.5C 1171.5,44.1667 1171.5,88.8333 1171.5,133.5C 780.833,133.5 390.167,133.5 -0.5,133.5C -0.5,88.8333 -0.5,44.1667 -0.5,-0.5 Z"/></g>
<g><path style="opacity:1" fill="#202a5b" d="M 71.5,1.5 C 75.2733,1.26326 78.9399,1.76326 82.5,3C 84.282,5.24309 84.782,7.74309 84,10.5C 81.9249,14.579 79.0916,18.079 75.5,21C 69.4455,24.6939 63.1122,27.8606 56.5,30.5C 55.1667,34.1667 55.1667,37.8333 56.5,41.5C 62.7432,37.8641 69.4099,36.3641 76.5,37C 77.9308,37.4652 79.0975,38.2986 80,39.5C 80.6667,42.1667 80.6667,44.8333 80,47.5C 73.5218,54.7492 65.5218,59.7492 56,62.5C 55.8687,71.616 54.8687,80.616 53,89.5C 48.1783,97.6095 43.845,97.2762 40,88.5C 38.0666,83.3052 36.7332,77.9719 36,72.5C 35.1167,54.4686 35.45,36.4686 37,18.5C 39.5665,13.9449 43.3998,10.7783 48.5,9C 56.1188,5.95953 63.7855,3.45953 71.5,1.5 Z"/></g>
<g><path style="opacity:1" fill="#202a5b" d="M 392.5,3.5 C 399.563,3.21221 406.563,3.71221 413.5,5C 419.03,10.3128 418.697,15.3128 412.5,20C 409.567,21.8132 406.567,23.4799 403.5,25C 401.26,25.977 398.927,26.477 396.5,26.5C 395.844,47.1593 395.344,67.8259 395,88.5C 392.984,98.0152 387.984,100.348 380,95.5C 378.249,93.5101 377.249,91.1768 377,88.5C 376.5,68.5028 376.333,48.5028 376.5,28.5C 370.238,29.128 364.238,28.2946 358.5,26C 355.102,23.7354 354.602,20.9021 357,17.5C 359.592,14.2379 362.759,11.7379 366.5,10C 375.11,7.11703 383.777,4.95037 392.5,3.5 Z"/></g>
<g><path style="opacity:1" fill="#202a5b" d="M 640.5,2.5 C 655.88,2.51543 663.88,10.1821 664.5,25.5C 665.153,32.0165 663.153,37.5165 658.5,42C 653.883,43.297 650.05,42.1303 647,38.5C 646.783,33.4473 646.283,28.4473 645.5,23.5C 639.531,21.926 635.031,23.926 632,29.5C 625.978,42.298 624.311,55.6313 627,69.5C 628.458,75.0589 631.958,76.8923 637.5,75C 641.655,73.1893 643.655,70.0226 643.5,65.5C 637.091,64.5916 634.258,60.9249 635,54.5C 640.739,48.8039 647.739,46.1373 656,46.5C 660.939,46.7012 665.772,47.5345 670.5,49C 674.25,53.2255 674.416,57.7255 671,62.5C 668.765,64.2024 666.265,65.2024 663.5,65.5C 661.58,80.5402 653.914,91.3735 640.5,98C 629.798,99.9005 621.298,96.4005 615,87.5C 602.382,62.531 604.049,38.531 620,15.5C 625.474,8.82862 632.307,4.49529 640.5,2.5 Z"/></g>
<g><path style="opacity:1" fill="#202a5b" d="M 994.5,3.5 C 996.262,3.35729 997.929,3.69063 999.5,4.5C 1001.19,6.35857 1002.69,8.35857 1004,10.5C 1004.47,16.1815 1004.3,21.8482 1003.5,27.5C 1007.94,27.2101 1012.27,27.7101 1016.5,29C 1020.5,32.3333 1020.5,35.6667 1016.5,39C 1012.03,41.4341 1007.37,42.9341 1002.5,43.5C 1000.28,55.5022 1000.12,67.5022 1002,79.5C 1002.83,80.3333 1003.67,81.1667 1004.5,82C 1009.17,82.3333 1013.83,82.6667 1018.5,83C 1021.72,87.9978 1021.06,92.3311 1016.5,96C 1004.88,101.691 994.381,100.191 985,91.5C 984,89.1667 983,86.8333 982,84.5C 981.24,70.8076 981.406,57.141 982.5,43.5C 979.15,43.665 975.817,43.4983 972.5,43C 967.101,38.5768 967.435,34.5768 973.5,31C 977.197,28.9079 981.197,27.7412 985.5,27.5C 985.62,22.0631 986.454,16.7297 988,11.5C 989.479,8.17249 991.645,5.50583 994.5,3.5 Z"/></g>
<g><path style="opacity:1" fill="#202a5b" d="M 434.5,21.5 C 448.996,20.8712 457.329,27.5378 459.5,41.5C 457.075,57.591 447.741,66.591 431.5,68.5C 431.082,72.2509 432.749,74.4176 436.5,75C 438.833,75.6667 441.167,75.6667 443.5,75C 447.98,72.3461 452.48,69.8461 457,67.5C 461.167,67.6667 463.333,69.8333 463.5,74C 459.322,86.1703 450.822,93.337 438,95.5C 428.113,94.2249 420.78,89.2249 416,80.5C 409.306,64.3474 410.306,48.6807 419,33.5C 423.211,28.1057 428.377,24.1057 434.5,21.5 Z"/></g>
<g><path style="opacity:1" fill="#202a5b" d="M 700.5,21.5 C 718.499,21.6655 726.333,30.6655 724,48.5C 718.652,60.3399 709.485,67.0066 696.5,68.5C 698.208,74.5261 702.208,76.6928 708.5,75C 712.949,72.3045 717.449,69.8045 722,67.5C 726.212,67.7121 728.379,69.8787 728.5,74C 725.926,84.5742 719.259,91.2409 708.5,94C 696.505,96.4183 687.672,92.2517 682,81.5C 674.587,66.0706 674.92,50.7372 683,35.5C 687.295,28.6833 693.129,24.0167 700.5,21.5 Z"/></g>
<g><path style="opacity:1" fill="#202a5b" d="M 821.5,21.5 C 840.54,22.2563 848.04,31.9229 844,50.5C 838.469,61.3498 829.635,67.3498 817.5,68.5C 817.286,70.1439 817.62,71.6439 818.5,73C 821.881,75.2448 825.548,75.9115 829.5,75C 833.98,72.3461 838.48,69.8461 843,67.5C 847.404,67.7382 849.571,70.0715 849.5,74.5C 847.439,81.7868 843.106,87.2868 836.5,91C 823.501,97.9714 812.667,95.4714 804,83.5C 794.943,66.1703 795.61,49.1703 806,32.5C 810.174,27.1864 815.34,23.5197 821.5,21.5 Z"/></g>
<g><path style="opacity:1" fill="#202a5b" d="M 156.5,23.5 C 158.527,23.3379 160.527,23.5045 162.5,24C 165.128,26.754 167.128,29.9206 168.5,33.5C 175.273,25.6199 183.606,23.4533 193.5,27C 198.205,31.0941 201.039,36.2607 202,42.5C 203.631,60.3418 200.631,77.3418 193,93.5C 186.356,100.917 182.023,99.584 180,89.5C 179.785,78.2759 180.619,67.1092 182.5,56C 180.755,41.3129 176.921,40.8129 171,54.5C 170.667,62.5 170.333,70.5 170,78.5C 170.175,85.0071 168.008,90.5071 163.5,95C 159.219,96.4582 156.053,95.2916 154,91.5C 153.333,89.5 152.667,87.5 152,85.5C 150.398,67.4799 150.398,49.4799 152,31.5C 153.257,28.6488 154.757,25.9821 156.5,23.5 Z"/></g>
<g><path style="opacity:1" fill="#202a5b" d="M 235.5,22.5 C 245.764,22.2801 252.598,26.9468 256,36.5C 257.418,41.4285 257.751,46.4285 257,51.5C 252.736,58.4906 247.736,59.1573 242,53.5C 241.667,50.1667 241.333,46.8333 241,43.5C 239.612,42.4464 238.112,42.2797 236.5,43C 227.601,54.2329 226.268,66.2329 232.5,79C 238.117,79.9006 242.451,77.9006 245.5,73C 251.875,70.1209 255.542,72.1209 256.5,79C 253.356,91.0019 245.523,97.1685 233,97.5C 226.105,97.3834 220.772,94.3834 217,88.5C 208.438,71.5622 208.438,54.5622 217,37.5C 221.622,30.3563 227.789,25.3563 235.5,22.5 Z"/></g>
<g><path style="opacity:1" fill="#202a5b" d="M 742.5,23.5 C 744.527,23.3379 746.527,23.5045 748.5,24C 750.724,26.965 753.058,29.7984 755.5,32.5C 761.428,25.8873 768.762,23.7207 777.5,26C 786.337,32.3546 790.004,41.0213 788.5,52C 788.478,66.1111 785.645,79.6111 780,92.5C 778.167,94.3333 776.333,96.1667 774.5,98C 769.966,98.481 767.466,96.3143 767,91.5C 766.312,79.4521 766.812,67.4521 768.5,55.5C 768.333,52.8333 768.167,50.1667 768,47.5C 766.776,44.527 764.776,43.8603 762,45.5C 759.806,48.5544 758.139,51.8878 757,55.5C 756.667,63.8333 756.333,72.1667 756,80.5C 755.95,86.3289 753.783,91.1622 749.5,95C 744.004,96.8902 740.504,95.0569 739,89.5C 737.371,70.2318 737.038,50.8985 738,31.5C 739.323,28.6912 740.823,26.0245 742.5,23.5 Z"/></g>
<g><path style="opacity:1" fill="#202a5b" d="M 106.5,24.5 C 120.817,23.2383 130.65,29.2383 136,42.5C 140.456,58.2879 141.456,74.2879 139,90.5C 135.416,99.988 130.083,100.988 123,93.5C 122.798,91.7444 122.298,90.0777 121.5,88.5C 112.849,96.0712 103.516,97.2379 93.5,92C 82.3166,79.8898 83.6499,69.2231 97.5,60C 104.378,56.3754 111.544,53.5421 119,51.5C 119.985,42.879 116.152,39.7123 107.5,42C 104.758,43.1199 102.258,44.6199 100,46.5C 90.8577,50.0186 87.191,47.0186 89,37.5C 90,35.8333 91,34.1667 92,32.5C 96.7286,29.3911 101.562,26.7245 106.5,24.5 Z"/></g>
<g><path style="opacity:1" fill="#202a5b" d="M 931.5,24.5 C 945.737,22.8594 955.57,28.5261 961,41.5C 966.046,59.0224 966.712,76.6891 963,94.5C 954.881,100.792 949.548,98.7916 947,88.5C 932.947,99.563 921.28,97.563 912,82.5C 909.81,74.5042 911.977,68.0042 918.5,63C 926.361,56.6161 935.361,53.1161 945.5,52.5C 945.844,43.3507 941.51,39.8507 932.5,42C 928.745,44.7949 924.578,46.6282 920,47.5C 914.254,46.6948 912.254,43.3615 914,37.5C 918.345,31.0861 924.178,26.7527 931.5,24.5 Z"/></g>
<g><path style="opacity:1" fill="#202a5b" d="M 1046.5,24.5 C 1051.74,24.0227 1056.74,24.8561 1061.5,27C 1074.69,38.5499 1079.19,53.0499 1075,70.5C 1073.38,85.44 1065.38,94.7733 1051,98.5C 1042.54,98.4377 1036.2,94.771 1032,87.5C 1024.84,73.805 1023.51,59.4717 1028,44.5C 1031.29,35.047 1037.46,28.3803 1046.5,24.5 Z"/></g>
<g><path style="opacity:1" fill="#202a5b" d="M 275.5,26.5 C 279.526,26.6766 282.359,28.6766 284,32.5C 285.225,42.1074 285.892,51.7741 286,61.5C 287.829,67.1582 291.663,68.9916 297.5,67C 299.049,65.786 300.215,64.286 301,62.5C 302.231,54.9108 302.897,47.2441 303,39.5C 303.273,35.4563 304.773,31.9563 307.5,29C 309.833,28.3333 312.167,28.3333 314.5,29C 317.902,32.9676 320.402,37.4676 322,42.5C 325.687,63.9692 325.02,85.3026 320,106.5C 316.87,118.628 309.37,126.462 297.5,130C 291.991,130.165 286.658,129.165 281.5,127C 275.978,124.51 273.478,120.343 274,114.5C 276.251,110.874 279.418,109.707 283.5,111C 288.244,114.031 293.078,114.198 298,111.5C 304.084,101.01 306.751,89.6766 306,77.5C 299.85,89.3884 290.683,92.8884 278.5,88C 271.58,82.0791 267.746,74.5791 267,65.5C 265.958,55.3724 266.625,45.3724 269,35.5C 270.611,32.0624 272.777,29.0624 275.5,26.5 Z"/></g>
<g><path style="opacity:1" fill="#202a5b" d="M 548.5,3.5 C 552.876,4.02393 556.043,6.35726 558,10.5C 558.469,16.1815 558.302,21.8482 557.5,27.5C 562.734,26.8346 567.568,27.8346 572,30.5C 574.291,33.8347 573.791,36.668 570.5,39C 565.817,41.6816 560.817,43.1816 555.5,43.5C 554.999,52.0221 554.332,60.5221 553.5,69C 554.204,72.1275 554.704,75.2942 555,78.5C 556.62,80.7262 558.786,82.0596 561.5,82.5C 570.85,79.5999 575.017,82.9332 574,92.5C 568.026,98.2668 560.859,100.433 552.5,99C 541.271,96.7708 535.437,89.9374 535,78.5C 534.187,67.2236 534.687,56.0569 536.5,45C 530.045,45.3694 525.212,42.8694 522,37.5C 517.339,46.8262 512.172,55.8262 506.5,64.5C 510.507,70.5116 514.007,76.845 517,83.5C 518.666,90.8301 515.833,93.9968 508.5,93C 502.991,88.657 497.991,83.8237 493.5,78.5C 488.634,84.5324 482.967,89.6991 476.5,94C 471.515,95.7569 468.849,94.0903 468.5,89C 468.631,86.7473 469.131,84.5806 470,82.5C 473.85,75.463 477.683,68.463 481.5,61.5C 478.038,54.2477 474.871,46.9144 472,39.5C 469.997,31.1727 473.164,27.6727 481.5,29C 484.017,31.3494 486.35,33.8494 488.5,36.5C 490.171,40.5159 492.338,44.1826 495,47.5C 500.066,41.4292 505.566,35.5959 511.5,30C 517.683,24.4191 521.85,25.5857 524,33.5C 528.512,29.9093 533.678,27.9093 539.5,27.5C 539.364,22.0157 540.197,16.6823 542,11.5C 543.305,8.03864 545.471,5.37197 548.5,3.5 Z"/></g>
<g><path style="opacity:1" fill="#202a5b" d="M 865.5,27.5 C 867.591,27.3184 869.591,27.6518 871.5,28.5C 873.796,31.5335 875.63,34.8668 877,38.5C 879.869,35.2959 883.035,32.4626 886.5,30C 894.497,27.955 901.331,29.7883 907,35.5C 910.685,43.1049 908.518,47.7716 900.5,49.5C 897.167,48.8333 893.833,48.1667 890.5,47.5C 887.519,47.318 885.019,48.318 883,50.5C 881.065,53.3707 879.399,56.3707 878,59.5C 877.865,69.5494 877.198,79.5494 876,89.5C 870.105,100.324 864.771,99.9909 860,88.5C 858.755,75.2033 857.921,61.87 857.5,48.5C 857.268,42.9919 858.101,37.6585 860,32.5C 861.406,30.2563 863.239,28.5897 865.5,27.5 Z"/></g>
<g><path style="opacity:1" fill="#212b5c" d="M 1092.5,27.5 C 1095.36,27.0548 1097.86,27.7215 1100,29.5C 1102.29,32.4564 1103.63,35.7897 1104,39.5C 1111.53,28.9924 1121.03,26.8257 1132.5,33C 1137.98,38.7526 1137.65,44.0859 1131.5,49C 1126.74,49.4728 1122.08,48.9728 1117.5,47.5C 1114.21,47.2795 1111.71,48.6128 1110,51.5C 1108.29,53.9562 1106.96,56.6229 1106,59.5C 1105.82,68.8761 1105.15,78.2094 1104,87.5C 1103.2,92.4903 1100.53,95.8236 1096,97.5C 1093.15,96.6662 1090.82,94.9995 1089,92.5C 1087.27,87.6496 1086.27,82.6496 1086,77.5C 1085.33,64.1667 1085.33,50.8333 1086,37.5C 1086.44,32.9448 1088.6,29.6115 1092.5,27.5 Z"/></g>
<g><path style="opacity:1" fill="#556294" d="M 437.5,38.5 C 442.766,38.5409 444.599,41.2075 443,46.5C 439.651,50.1207 435.485,52.1207 430.5,52.5C 430.749,46.6674 433.083,42.0007 437.5,38.5 Z"/></g>
<g><path style="opacity:1" fill="#546193" d="M 702.5,38.5 C 708,37.8314 710.167,40.1647 709,45.5C 705.739,50.0484 701.239,52.3818 695.5,52.5C 696.249,47.0024 698.582,42.3358 702.5,38.5 Z"/></g>
<g><path style="opacity:1" fill="#556193" d="M 823.5,38.5 C 828.051,37.5537 830.384,39.387 830.5,44C 827.449,49.4373 822.782,52.2706 816.5,52.5C 816.941,46.8188 819.274,42.1521 823.5,38.5 Z"/></g>
<g><path style="opacity:1" fill="#576496" d="M 1050.5,43.5 C 1053.09,44.2543 1054.92,45.921 1056,48.5C 1059.29,57.8071 1059.29,67.1404 1056,76.5C 1052.11,82.0578 1048.78,81.7245 1046,75.5C 1042.81,66.4794 1042.81,57.4794 1046,48.5C 1046.74,46.0297 1048.24,44.363 1050.5,43.5 Z"/></g>
<g><path style="opacity:1" fill="#566395" d="M 117.5,65.5 C 118.5,65.5 119.5,65.5 120.5,65.5C 120.784,68.7766 120.451,71.9433 119.5,75C 115.454,77.174 111.121,78.0073 106.5,77.5C 107.335,70.9948 111.002,66.9948 117.5,65.5 Z"/></g>
<g><path style="opacity:1" fill="#556294" d="M 941.5,65.5 C 943.167,65.5 944.833,65.5 946.5,65.5C 947.945,71.8667 945.611,75.7 939.5,77C 936.854,77.4974 934.187,77.6641 931.5,77.5C 931.34,75.8008 931.506,74.1341 932,72.5C 934.79,69.535 937.957,67.2016 941.5,65.5 Z"/></g>
</svg>
