<?xml version="1.0" encoding="UTF-8"?>
<!DOCTYPE svg PUBLIC "-//W3C//DTD SVG 1.1//EN" "http://www.w3.org/Graphics/SVG/1.1/DTD/svg11.dtd">
<svg xmlns="http://www.w3.org/2000/svg" version="1.1" width="740px" height="136px" style="shape-rendering:geometricPrecision; text-rendering:geometricPrecision; image-rendering:optimizeQuality; fill-rule:evenodd; clip-rule:evenodd" xmlns:xlink="http://www.w3.org/1999/xlink">
<g><path style="opacity:1" fill="#586597" d="M -0.5,-0.5 C 246.167,-0.5 492.833,-0.5 739.5,-0.5C 739.5,44.8333 739.5,90.1667 739.5,135.5C 492.833,135.5 246.167,135.5 -0.5,135.5C -0.5,90.1667 -0.5,44.8333 -0.5,-0.5 Z"/></g>
<g><path style="opacity:1" fill="#202a5b" d="M 64.5,2.5 C 70.051,1.37499 74.3844,3.04165 77.5,7.5C 76.5183,12.9582 73.8517,17.4582 69.5,21C 63.3702,24.8149 57.0369,28.1483 50.5,31C 48.0927,34.5357 47.4261,38.369 48.5,42.5C 54.8964,38.3185 61.8964,36.8185 69.5,38C 73.1241,40.1613 74.2907,43.328 73,47.5C 71.2068,50.2953 69.0402,52.7953 66.5,55C 60.8118,58.347 54.8118,60.847 48.5,62.5C 48.476,72.6564 47.3094,82.6564 45,92.5C 40.1385,98.1255 36.1385,97.4588 33,90.5C 27.9369,73.8928 26.2703,56.8928 28,39.5C 28.2113,32.4486 28.878,25.4486 30,18.5C 30.7845,16.714 31.9512,15.214 33.5,14C 43.3056,8.48637 53.639,4.65304 64.5,2.5 Z"/></g>
<g><path style="opacity:1" fill="#202a5b" d="M 307.5,3.5 C 321.695,2.17701 330.528,8.51034 334,22.5C 334.884,29.5817 334.551,36.5817 333,43.5C 328.24,49.2284 322.907,49.895 317,45.5C 315.12,40.1325 313.954,34.6325 313.5,29C 311.5,28.3333 309.5,28.3333 307.5,29C 301.049,38.0436 298.049,48.2103 298.5,59.5C 298.365,64.9894 299.198,70.3227 301,75.5C 303.065,78.876 306.065,80.2094 310,79.5C 316.702,77.6265 323.536,76.7932 330.5,77C 333.803,80.795 334.303,84.9617 332,89.5C 322.037,101.595 309.87,104.429 295.5,98C 283.656,87.8339 277.989,74.8339 278.5,59C 278.568,40.1122 284.901,23.7788 297.5,10C 301.069,8.05831 304.402,5.89164 307.5,3.5 Z"/></g>
<g><path style="opacity:1" fill="#202a5b" d="M 356.5,2.5 C 358.722,2.17798 360.556,2.84464 362,4.5C 363.826,7.60341 365.16,10.9367 366,14.5C 366.333,23.1667 366.667,31.8333 367,40.5C 373.882,32.5693 382.049,30.7359 391.5,35C 394.805,38.8947 396.972,43.3947 398,48.5C 398.997,63.5904 398.331,78.5904 396,93.5C 392.468,99.2904 388.135,99.957 383,95.5C 382.178,93.2115 381.511,90.8782 381,88.5C 380.667,79.1667 380.333,69.8333 380,60.5C 379.727,58.6711 378.893,57.1711 377.5,56C 371.414,53.9332 367.248,55.7666 365,61.5C 364.624,69.8575 363.957,78.1909 363,86.5C 362.05,94.1339 357.884,97.6339 350.5,97C 348.652,95.482 347.152,93.6487 346,91.5C 342.828,64.1875 344.495,37.1875 351,10.5C 352.273,7.40273 354.107,4.73606 356.5,2.5 Z"/></g>
<g><path style="opacity:1" fill="#202a5b" d="M 229.5,24.5 C 228.566,25.5676 228.232,26.901 228.5,28.5C 230.5,28.5 232.5,28.5 234.5,28.5C 240.632,28.1657 244.132,30.8324 245,36.5C 240.65,42.1287 234.816,44.7953 227.5,44.5C 226.774,52.4883 226.107,60.4883 225.5,68.5C 225.054,73.8893 226.387,78.7227 229.5,83C 234.167,83.3333 238.833,83.6667 243.5,84C 247.5,88 247.5,92 243.5,96C 232.633,102.123 222.133,101.623 212,94.5C 207.11,86.9076 205.277,78.5742 206.5,69.5C 206.762,61.16 207.095,52.8267 207.5,44.5C 203.692,44.8368 200.026,44.3368 196.5,43C 192.859,36.9489 194.526,32.9489 201.5,31C 204.618,29.2725 207.951,28.4392 211.5,28.5C 210.965,21.8262 212.132,15.4929 215,9.5C 221.84,2.37998 226.84,3.71331 230,13.5C 230.45,17.1875 230.283,20.8542 229.5,24.5 Z"/></g>
<g><path style="opacity:1" fill="#202a5b" d="M 623.5,22.5 C 638.032,21.8833 646.366,28.5499 648.5,42.5C 646.075,58.591 636.741,67.591 620.5,69.5C 620.082,73.2509 621.749,75.4176 625.5,76C 627.833,76.6667 630.167,76.6667 632.5,76C 636.98,73.3461 641.48,70.8461 646,68.5C 650.167,68.6667 652.333,70.8333 652.5,75C 649.216,84.9504 642.55,91.6171 632.5,95C 623.009,97.4962 615.176,94.9962 609,87.5C 600.113,74.3112 598.113,59.9779 603,44.5C 606.966,34.3714 613.799,27.0381 623.5,22.5 Z"/></g>
<g><path style="opacity:1" fill="#202a5b" d="M 145.5,24.5 C 147.527,24.3379 149.527,24.5045 151.5,25C 154.037,27.9063 156.204,31.073 158,34.5C 163.743,26.9422 171.243,24.4422 180.5,27C 186.067,30.2872 189.567,35.1205 191,41.5C 192.985,59.5722 190.318,76.9055 183,93.5C 181.167,95.3333 179.333,97.1667 177.5,99C 173.82,99.6816 171.32,98.1816 170,94.5C 169.32,81.7896 169.82,69.123 171.5,56.5C 171.333,53.8333 171.167,51.1667 171,48.5C 169.776,45.527 167.776,44.8603 165,46.5C 162.806,49.5544 161.139,52.8878 160,56.5C 159.667,65.1667 159.333,73.8333 159,82.5C 158.741,87.9574 156.574,92.4574 152.5,96C 147.661,97.7164 144.494,96.2164 143,91.5C 142.529,89.7536 141.862,88.087 141,86.5C 140.333,68.8333 140.333,51.1667 141,33.5C 141.999,30.1675 143.499,27.1675 145.5,24.5 Z"/></g>
<g><path style="opacity:1" fill="#202a5b" d="M 480.5,24.5 C 481.873,24.3433 483.207,24.51 484.5,25C 487.128,27.754 489.128,30.9206 490.5,34.5C 497.273,26.6199 505.606,24.4533 515.5,28C 520.205,32.0941 523.039,37.2607 524,43.5C 525.197,58.9279 523.197,73.9279 518,88.5C 516.249,94.5971 512.416,98.0971 506.5,99C 504.348,96.5311 502.848,93.6978 502,90.5C 501.757,78.7709 502.59,67.1042 504.5,55.5C 504.333,53.1667 504.167,50.8333 504,48.5C 502.012,45.1618 499.679,44.8285 497,47.5C 495.289,49.9562 493.956,52.6229 493,55.5C 492.667,63.5 492.333,71.5 492,79.5C 492.175,86.0071 490.008,91.5071 485.5,96C 480.572,97.6433 477.072,96.1433 475,91.5C 474.055,87.8859 473.388,84.2192 473,80.5C 472.333,66.5 472.333,52.5 473,38.5C 472.804,32.159 475.304,27.4923 480.5,24.5 Z"/></g>
<g><path style="opacity:1" fill="#202a5b" d="M 557.5,24.5 C 565.757,22.7824 571.424,25.7824 574.5,33.5C 582.245,23.2438 587.079,24.5772 589,37.5C 590.541,60.6815 589.207,83.6815 585,106.5C 578.577,129.459 564.077,137.293 541.5,130C 535.088,126.669 532.255,121.502 533,114.5C 535.251,110.874 538.418,109.707 542.5,111C 555.571,118.377 564.071,114.877 568,100.5C 569.19,97.8056 569.356,95.1389 568.5,92.5C 550.088,100.209 538.588,94.2088 534,74.5C 532.608,57.0079 537.775,41.8412 549.5,29C 552.099,27.205 554.766,25.705 557.5,24.5 Z"/></g>
<g><path style="opacity:1" fill="#202a5b" d="M 100.5,25.5 C 111.524,23.7625 119.691,27.7625 125,37.5C 131.646,51.7542 132.312,66.4209 127,81.5C 121.003,96.2499 110.503,101.417 95.5,97C 82.7089,86.9811 77.5423,73.8145 80,57.5C 81.1125,42.9381 87.9459,32.2714 100.5,25.5 Z"/></g>
<g><path style="opacity:1" fill="#202a5b" d="M 427.5,25.5 C 443.796,23.8929 454.296,30.8929 459,46.5C 462.573,61.3803 463.239,76.3803 461,91.5C 459.255,98.4109 455.089,100.578 448.5,98C 445.935,95.7051 444.269,92.8718 443.5,89.5C 437.095,94.8723 429.762,97.0389 421.5,96C 410.811,91.1225 406.645,82.9558 409,71.5C 413.547,64.6383 419.713,59.805 427.5,57C 431.987,55.3338 436.487,53.8338 441,52.5C 441.985,43.879 438.152,40.7123 429.5,43C 425.579,45.1293 421.579,46.9627 417.5,48.5C 411.128,48.1153 408.961,44.782 411,38.5C 412,36.8333 413,35.1667 414,33.5C 418.221,30.1479 422.721,27.4812 427.5,25.5 Z"/></g>
<g><path style="opacity:1" fill="#3f4a7b" d="M 229.5,24.5 C 229.5,25.5 229.5,26.5 229.5,27.5C 231.415,27.2155 233.081,27.5489 234.5,28.5C 232.5,28.5 230.5,28.5 228.5,28.5C 228.232,26.901 228.566,25.5676 229.5,24.5 Z"/></g>
<g><path style="opacity:1" fill="#202a5b" d="M 667.5,28.5 C 669.527,28.3379 671.527,28.5045 673.5,29C 676.219,32.1582 678.386,35.6582 680,39.5C 682.869,36.2959 686.035,33.4626 689.5,31C 693.833,30.3333 698.167,30.3333 702.5,31C 709.415,34.0002 712.248,39.1669 711,46.5C 709.59,47.7875 708.09,48.9542 706.5,50C 702.036,50.5765 697.703,50.0765 693.5,48.5C 690.486,48.2585 687.986,49.2585 686,51.5C 684.065,54.3707 682.399,57.3707 681,60.5C 680.824,70.2093 680.158,79.876 679,89.5C 678.1,93.8951 675.6,96.8951 671.5,98.5C 669.303,98.1519 667.47,97.1519 666,95.5C 664.048,92.1086 662.715,88.442 662,84.5C 661.322,69.8291 660.988,55.1625 661,40.5C 661.379,35.4015 663.545,31.4015 667.5,28.5 Z"/></g>
<g><path style="opacity:1" fill="#556193" d="M 626.5,39.5 C 632.204,39.1464 634.037,41.813 632,47.5C 628.651,51.1207 624.485,53.1207 619.5,53.5C 619.749,47.6674 622.083,43.0007 626.5,39.5 Z"/></g>
<g><path style="opacity:1" fill="#576496" d="M 103.5,44.5 C 109.632,45.3707 112.466,49.0374 112,55.5C 113.336,64.1684 112.336,72.5017 109,80.5C 105.274,82.3538 102.608,81.3538 101,77.5C 97.1,66.0971 97.9333,55.0971 103.5,44.5 Z"/></g>
<g><path style="opacity:1" fill="#576496" d="M 559.5,45.5 C 562.272,45.22 564.772,45.8866 567,47.5C 573.492,58.0316 572.659,67.8649 564.5,77C 561.594,78.3185 558.594,78.6518 555.5,78C 550.851,69.8333 550.351,61.3333 554,52.5C 555.666,50.0043 557.5,47.671 559.5,45.5 Z"/></g>
<g><path style="opacity:1" fill="#566395" d="M 439.5,66.5 C 440.5,66.5 441.5,66.5 442.5,66.5C 442.784,69.7766 442.451,72.9433 441.5,76C 437.454,78.174 433.121,79.0073 428.5,78.5C 428.338,76.4727 428.505,74.4727 429,72.5C 432.069,69.5545 435.569,67.5545 439.5,66.5 Z"/></g>
</svg>
