<?xml version="1.0" encoding="UTF-8"?>
<!DOCTYPE svg PUBLIC "-//W3C//DTD SVG 1.1//EN" "http://www.w3.org/Graphics/SVG/1.1/DTD/svg11.dtd">
<svg xmlns="http://www.w3.org/2000/svg" version="1.1" width="830px" height="108px" style="shape-rendering:geometricPrecision; text-rendering:geometricPrecision; image-rendering:optimizeQuality; fill-rule:evenodd; clip-rule:evenodd" xmlns:xlink="http://www.w3.org/1999/xlink">
<g><path style="opacity:1" fill="#586597" d="M -0.5,-0.5 C 276.167,-0.5 552.833,-0.5 829.5,-0.5C 829.5,35.5 829.5,71.5 829.5,107.5C 552.833,107.5 276.167,107.5 -0.5,107.5C -0.5,71.5 -0.5,35.5 -0.5,-0.5 Z"/></g>
<g><path style="opacity:1" fill="#202a5b" d="M 57.5,5.5 C 61.8461,5.33432 66.1794,5.50098 70.5,6C 72.5037,8.84077 73.0037,12.0074 72,15.5C 69.5374,18.9646 66.7041,22.1312 63.5,25C 57.6052,28.4018 51.6052,31.5684 45.5,34.5C 44.6949,37.3044 44.0283,40.1377 43.5,43C 43.8333,43.5 44.1667,44 44.5,44.5C 51.4208,41.0846 58.7542,39.9179 66.5,41C 69.2017,43.2035 70.0351,46.0368 69,49.5C 67.215,52.9524 64.715,55.7857 61.5,58C 56.2463,60.795 50.9129,63.295 45.5,65.5C 44.3632,74.5056 43.1965,83.5056 42,92.5C 40.5091,97.3265 37.3425,99.1598 32.5,98C 30.2419,95.4151 28.4086,92.5818 27,89.5C 22.7089,66.559 22.3756,43.559 26,20.5C 26.4652,19.0692 27.2986,17.9025 28.5,17C 33.1978,14.6511 37.8644,12.3178 42.5,10C 47.8545,9.25067 52.8545,7.75067 57.5,5.5 Z"/></g>
<g><path style="opacity:1" fill="#202a5b" d="M 305.5,6.5 C 324.301,5.80092 333.135,14.8009 332,33.5C 331.569,42.2696 327.069,46.4363 318.5,46C 317,45.1667 315.833,44 315,42.5C 313.964,36.9976 313.13,31.4976 312.5,26C 304.931,25.5515 300.098,29.0515 298,36.5C 293.118,49.7001 292.451,63.0334 296,76.5C 303.439,80.5008 308.606,78.5008 311.5,70.5C 301.242,66.4707 299.909,60.6373 307.5,53C 318.404,49.3491 329.07,49.6824 339.5,54C 342.193,57.9736 341.86,61.8069 338.5,65.5C 336.709,67.4597 334.543,68.793 332,69.5C 329.746,77.34 326.413,84.6733 322,91.5C 306.964,107.158 293.297,106.158 281,88.5C 268.576,60.5412 272.743,35.3746 293.5,13C 297.2,10.0983 301.2,7.93168 305.5,6.5 Z"/></g>
<g><path style="opacity:1" fill="#202a5b" d="M 215.5,7.5 C 223.636,8.41589 226.969,13.0826 225.5,21.5C 225.449,24.223 225.116,26.8896 224.5,29.5C 228.532,30.2249 232.532,31.0582 236.5,32C 243.019,36.222 242.686,40.222 235.5,44C 231.687,45.772 227.687,46.6053 223.5,46.5C 222.761,54.4883 222.094,62.4883 221.5,70.5C 221.504,74.5695 222.004,78.5695 223,82.5C 223.5,83.6667 224.333,84.5 225.5,85C 229.833,85.3333 234.167,85.6667 238.5,86C 243.194,92.1026 242.194,97.1026 235.5,101C 226.886,103.471 218.553,102.804 210.5,99C 206.339,95.846 203.839,91.6794 203,86.5C 202.367,73.4873 202.534,60.4873 203.5,47.5C 198.553,48.3724 194.387,47.0391 191,43.5C 189.563,38.4238 191.396,35.0905 196.5,33.5C 199.631,32.3097 202.797,31.3097 206,30.5C 207.184,25.5462 208.184,20.5462 209,15.5C 210.479,12.1725 212.645,9.50583 215.5,7.5 Z"/></g>
<g><path style="opacity:1" fill="#202a5b" d="M 660.5,7.5 C 668.331,7.83317 672.331,11.9998 672.5,20C 672.339,23.4693 671.673,26.8027 670.5,30C 674.894,30.3028 679.227,30.9695 683.5,32C 688.833,35.6667 688.833,39.3333 683.5,43C 679.104,45.2995 674.438,46.4661 669.5,46.5C 668.889,54.8318 668.222,63.1651 667.5,71.5C 666.64,84.4547 672.64,89.2881 685.5,86C 689.646,90.6253 689.313,94.9586 684.5,99C 658.574,107.749 646.574,98.416 648.5,71C 648.707,63.1565 649.041,55.3232 649.5,47.5C 644.553,48.3724 640.387,47.0391 637,43.5C 636.333,41.8333 636.333,40.1667 637,38.5C 640.933,33.6731 646.1,31.0064 652.5,30.5C 652.685,21.7967 655.352,14.1301 660.5,7.5 Z"/></g>
<g><path style="opacity:1" fill="#202a5b" d="M 365.5,25.5 C 387.215,24.6991 395.381,34.6991 390,55.5C 384.308,65.2703 375.808,70.937 364.5,72.5C 364.452,75.2919 365.785,77.1253 368.5,78C 371.5,78.6667 374.5,78.6667 377.5,78C 382.049,73.718 387.383,71.718 393.5,72C 397.096,75.8508 397.263,80.0175 394,84.5C 384.799,97.3486 372.965,100.849 358.5,95C 343.732,81.6268 339.899,65.4602 347,46.5C 350.601,37.0759 356.767,30.0759 365.5,25.5 Z"/></g>
<g><path style="opacity:1" fill="#202a5b" d="M 488.5,25.5 C 502.676,24.3987 511.01,30.732 513.5,44.5C 511.209,60.7907 501.876,70.124 485.5,72.5C 484.965,75.2385 485.965,77.0718 488.5,78C 495.636,79.4328 501.636,77.4328 506.5,72C 515.716,70.2117 518.883,73.7117 516,82.5C 507.363,95.9184 495.529,100.418 480.5,96C 463.821,81.6293 459.987,64.1293 469,43.5C 473.196,34.7963 479.696,28.7963 488.5,25.5 Z"/></g>
<g><path style="opacity:1" fill="#202a5b" d="M 141.5,27.5 C 143.857,27.3367 146.19,27.5034 148.5,28C 150.549,30.5957 152.215,33.429 153.5,36.5C 159.381,30.5461 166.381,28.0461 174.5,29C 179.974,30.4735 183.474,33.9735 185,39.5C 188.957,57.1691 187.623,74.5024 181,91.5C 179.382,94.9429 177.215,97.9429 174.5,100.5C 172.579,101.641 170.579,101.808 168.5,101C 166.876,98.3688 165.709,95.5355 165,92.5C 165.075,81.2983 165.908,70.1316 167.5,59C 167.333,56.5 167.167,54 167,51.5C 164.452,47.5346 161.785,47.5346 159,51.5C 157.725,53.7173 156.725,56.0506 156,58.5C 156.063,70.2783 155.063,81.9449 153,93.5C 148.581,100.867 143.914,101.2 139,94.5C 138.333,92.5 137.667,90.5 137,88.5C 136.333,70.8333 136.333,53.1667 137,35.5C 137.738,32.3515 139.238,29.6848 141.5,27.5 Z"/></g>
<g><path style="opacity:1" fill="#202a5b" d="M 410.5,27.5 C 412.527,27.3379 414.527,27.5045 416.5,28C 418.872,30.58 420.872,33.4134 422.5,36.5C 428.953,28.7393 436.953,26.5727 446.5,30C 454.003,37.014 457.336,45.6806 456.5,56C 456.003,70.1581 452.836,83.6581 447,96.5C 441.351,103.702 437.018,103.035 434,94.5C 433.505,83.1269 434.005,71.7935 435.5,60.5C 435.333,57.1667 435.167,53.8333 435,50.5C 431.575,47.5879 428.908,48.2545 427,52.5C 426,55.1667 425,57.8333 424,60.5C 423.667,69.5 423.333,78.5 423,87.5C 422.244,95.2624 418.078,99.0957 410.5,99C 406.907,94.143 405.073,88.643 405,82.5C 404.094,66.127 404.427,49.7936 406,33.5C 406.979,31.0324 408.479,29.0324 410.5,27.5 Z"/></g>
<g><path style="opacity:1" fill="#202a5b" d="M 94.5,28.5 C 108.883,26.2747 118.716,31.9414 124,45.5C 128.509,61.4932 126.842,76.8265 119,91.5C 110.125,102.644 99.6246,104.478 87.5,97C 74.4198,81.2161 71.9198,63.7161 80,44.5C 83.3071,37.6971 88.1404,32.3638 94.5,28.5 Z"/></g>
<g><path style="opacity:1" fill="#202a5b" d="M 601.5,27.5 C 613.716,27.3532 622.549,32.6865 628,43.5C 633.689,60.9471 634.689,78.6138 631,96.5C 628.087,101.689 623.92,102.856 618.5,100C 616.628,97.7068 615.128,95.2068 614,92.5C 606.988,97.8374 599.154,99.6707 590.5,98C 576.199,88.8716 574.865,78.205 586.5,66C 594.402,60.5469 603.069,57.0469 612.5,55.5C 613.186,51.713 612.186,48.5463 609.5,46C 602.874,44.2695 597.207,45.7695 592.5,50.5C 582.276,52.427 579.109,48.427 583,38.5C 588.149,32.8524 594.316,29.1858 601.5,27.5 Z"/></g>
<g><path style="opacity:1" fill="#202a5b" d="M 713.5,28.5 C 724.526,26.7634 732.693,30.7634 738,40.5C 746.009,58.3375 745.009,75.6709 735,92.5C 726.734,102.322 716.901,104.155 705.5,98C 691.852,82.9268 688.685,65.7601 696,46.5C 699.379,37.9561 705.212,31.9561 713.5,28.5 Z"/></g>
<g><path style="opacity:1" fill="#212b5c" d="M 532.5,30.5 C 539.404,31.241 543.237,35.241 544,42.5C 548.117,36.6994 553.617,33.3661 560.5,32.5C 568.802,32.3132 574.135,36.1465 576.5,44C 576.479,47.7671 574.813,50.4337 571.5,52C 566.683,52.7795 562.016,52.2795 557.5,50.5C 550.937,52.2215 547.104,56.5548 546,63.5C 545.776,72.8702 545.109,82.2035 544,91.5C 542.209,99.3863 537.875,101.72 531,98.5C 527.875,93.2531 526.208,87.5864 526,81.5C 525.333,67.8333 525.333,54.1667 526,40.5C 526.932,36.2883 529.098,32.955 532.5,30.5 Z"/></g>
<g><path style="opacity:1" fill="#202a5b" d="M 759.5,30.5 C 761.527,30.3379 763.527,30.5045 765.5,31C 768.409,34.3741 770.576,38.2075 772,42.5C 777.638,33.5977 785.471,30.7644 795.5,34C 801.842,36.8506 804.342,41.6839 803,48.5C 801.786,50.0488 800.286,51.2155 798.5,52C 793.878,52.6932 789.378,52.1932 785,50.5C 777.943,52.8992 773.943,57.8992 773,65.5C 772.847,74.5503 772.18,83.5503 771,92.5C 768.227,101.181 763.561,102.515 757,96.5C 755.422,93.3428 754.422,90.0094 754,86.5C 753.187,72.1678 752.853,57.8345 753,43.5C 753.617,38.2646 755.784,33.9313 759.5,30.5 Z"/></g>
<g><path style="opacity:1" fill="#566395" d="M 369.5,42.5 C 376.815,42.2828 378.481,45.4495 374.5,52C 370.974,53.5486 367.474,55.0486 364,56.5C 363.378,50.866 365.211,46.1993 369.5,42.5 Z"/></g>
<g><path style="opacity:1" fill="#566395" d="M 491.5,42.5 C 497.387,42.2126 499.054,44.8792 496.5,50.5C 493.153,53.6735 489.153,55.3401 484.5,55.5C 484.551,49.7191 486.884,45.3857 491.5,42.5 Z"/></g>
<g><path style="opacity:1" fill="#576496" d="M 99.5,47.5 C 101.467,47.2606 103.301,47.5939 105,48.5C 109.168,59.3671 109.502,70.3671 106,81.5C 103.333,84.1667 100.667,84.1667 98,81.5C 94.7091,74.1761 93.7091,66.5094 95,58.5C 95.4135,54.3459 96.9135,50.6793 99.5,47.5 Z"/></g>
<g><path style="opacity:1" fill="#576496" d="M 715.5,47.5 C 718.652,46.9586 721.152,47.9586 723,50.5C 726.747,61.6102 726.247,72.4435 721.5,83C 719.231,83.7581 717.064,83.5914 715,82.5C 710.25,70.76 710.416,59.0933 715.5,47.5 Z"/></g>
<g><path style="opacity:1" fill="#566395" d="M 607.5,69.5 C 609.5,69.5 611.5,69.5 613.5,69.5C 613.817,72.5719 613.484,75.5719 612.5,78.5C 608.375,80.9538 604.042,81.6204 599.5,80.5C 598.417,79.635 598.251,78.635 599,77.5C 601.074,73.9231 603.907,71.2565 607.5,69.5 Z"/></g>
</svg>
