<?xml version="1.0" encoding="UTF-8"?>
<!DOCTYPE svg PUBLIC "-//W3C//DTD SVG 1.1//EN" "http://www.w3.org/Graphics/SVG/1.1/DTD/svg11.dtd">
<svg xmlns="http://www.w3.org/2000/svg" version="1.1" width="684px" height="71px" style="shape-rendering:geometricPrecision; text-rendering:geometricPrecision; image-rendering:optimizeQuality; fill-rule:evenodd; clip-rule:evenodd" xmlns:xlink="http://www.w3.org/1999/xlink">
<g><path style="opacity:1" fill="#566799" d="M -0.5,-0.5 C 227.5,-0.5 455.5,-0.5 683.5,-0.5C 683.5,23.1667 683.5,46.8333 683.5,70.5C 455.5,70.5 227.5,70.5 -0.5,70.5C -0.5,46.8333 -0.5,23.1667 -0.5,-0.5 Z"/></g>
<g><path style="opacity:1" fill="#1f2c5d" d="M 140.5,1.5 C 144.182,0.72531 146.682,2.05864 148,5.5C 147.334,21.5021 147.5,37.5021 148.5,53.5C 148.318,56.2263 147.818,58.8929 147,61.5C 146.225,63.2231 144.892,64.2231 143,64.5C 140.403,63.5708 138.403,61.9041 137,59.5C 130.219,67.6656 123.719,67.4989 117.5,59C 112.062,47.4709 112.229,35.9709 118,24.5C 123.124,18.1763 128.624,17.8429 134.5,23.5C 136.05,17.2907 137.217,10.9574 138,4.5C 138.698,3.30943 139.531,2.30943 140.5,1.5 Z"/></g>
<g><path style="opacity:1" fill="#1f2c5d" d="M 353.5,4.5 C 367.878,4.86477 373.378,12.1981 370,26.5C 367.389,30.8804 364.055,31.547 360,28.5C 358.663,24.9743 358.163,21.3076 358.5,17.5C 356.409,17.3184 354.409,17.6518 352.5,18.5C 347.338,25.1921 345.004,32.8588 345.5,41.5C 344.547,46.611 346.38,49.9443 351,51.5C 354.442,51.5647 356.608,49.898 357.5,46.5C 349.564,42.2949 349.564,38.1282 357.5,34C 362.5,33.3333 367.5,33.3333 372.5,34C 376.104,35.3339 377.271,37.8339 376,41.5C 374.292,43.5435 372.292,45.2101 370,46.5C 368.306,55.0897 363.806,61.5897 356.5,66C 347.07,68.0342 340.237,64.5342 336,55.5C 329.667,37.4968 333.167,21.6635 346.5,8C 348.925,6.78739 351.259,5.62073 353.5,4.5 Z"/></g>
<g><path style="opacity:1" fill="#1f2c5d" d="M 21.5,4.5 C 37.1416,5.11772 42.3082,12.7844 37,27.5C 34.5,30 32,32.5 29.5,35C 37.4957,38.6099 40.3291,44.7765 38,53.5C 31.1614,63.5648 21.6614,67.3981 9.5,65C 6.10389,63.29 4.60389,60.4567 5,56.5C 4.33333,42.5 4.33333,28.5 5,14.5C 5.70653,12.9194 6.53986,11.4194 7.5,10C 12.0456,7.54529 16.7123,5.71196 21.5,4.5 Z"/></g>
<g><path style="opacity:1" fill="#1f2c5d" d="M 189.5,5.5 C 195.537,5.17075 201.537,5.50408 207.5,6.5C 209.256,8.19134 209.756,10.1913 209,12.5C 205.829,16.6124 201.662,18.9458 196.5,19.5C 195.335,34.1351 194.502,48.8017 194,63.5C 187.582,68.4627 183.916,66.796 183,58.5C 182.5,46.1712 182.333,33.8378 182.5,21.5C 178.692,21.8368 175.026,21.3368 171.5,20C 168.634,15.6901 169.634,12.3567 174.5,10C 179.535,8.15063 184.535,6.65063 189.5,5.5 Z"/></g>
<g><path style="opacity:1" fill="#1f2c5d" d="M 585.5,5.5 C 588.325,5.08073 590.491,6.08073 592,8.5C 592.607,12.5369 592.44,16.5369 591.5,20.5C 594.187,20.3359 596.854,20.5026 599.5,21C 603.5,23.6667 603.5,26.3333 599.5,29C 596.635,29.8368 593.802,30.6702 591,31.5C 589.78,38.1331 589.447,44.7998 590,51.5C 590.273,53.3289 591.107,54.8289 592.5,56C 595.5,56.3333 598.5,56.6667 601.5,57C 604.328,60.6336 603.662,63.6336 599.5,66C 592.19,68.8581 585.69,67.6914 580,62.5C 579.138,60.913 578.471,59.2464 578,57.5C 577.184,48.9213 577.351,40.4213 578.5,32C 574.201,32.476 571.201,30.8093 569.5,27C 571.888,22.8013 575.555,20.6346 580.5,20.5C 579.885,14.5805 581.552,9.58046 585.5,5.5 Z"/></g>
<g><path style="opacity:1" fill="#1f2c5d" d="M 99.5,6.5 C 102.238,5.96478 104.072,6.96478 105,9.5C 105.667,27.5 105.667,45.5 105,63.5C 102.521,66.6831 99.854,67.0164 97,64.5C 92.9942,55.8198 91.1608,46.6531 91.5,37C 91.678,30.0872 92.5113,23.2538 94,16.5C 95.0699,12.6891 96.9033,9.35573 99.5,6.5 Z"/></g>
<g><path style="opacity:1" fill="#1f2c5d" d="M 218.5,17.5 C 234.428,16.7121 239.595,23.7121 234,38.5C 229.888,43.4722 224.722,46.8056 218.5,48.5C 219.452,50.5116 221.119,51.5116 223.5,51.5C 227.767,50.2904 231.933,48.6237 236,46.5C 239.205,47.7982 240.205,50.1316 239,53.5C 230.056,66.7874 220.056,67.7874 209,56.5C 201.767,40.7479 204.933,27.7479 218.5,17.5 Z"/></g>
<g><path style="opacity:1" fill="#1f2c5e" d="M 391.5,17.5 C 404.148,15.6596 410.314,20.993 410,33.5C 406.512,41.6777 400.345,46.6777 391.5,48.5C 392.927,50.5468 394.927,51.5468 397.5,51.5C 401.407,50.1163 405.24,48.4496 409,46.5C 412.205,47.7982 413.205,50.1316 412,53.5C 406.353,63.918 398.186,66.7513 387.5,62C 376.305,49.4606 375.638,36.2939 385.5,22.5C 387.544,20.7806 389.544,19.1139 391.5,17.5 Z"/></g>
<g><path style="opacity:1" fill="#1f2c5d" d="M 470.5,17.5 C 483.821,15.656 489.655,21.3227 488,34.5C 484.422,41.9048 478.588,46.5715 470.5,48.5C 471.927,50.5468 473.927,51.5468 476.5,51.5C 480.407,50.1163 484.24,48.4496 488,46.5C 491.297,48.1581 492.297,50.8248 491,54.5C 480.412,67.7401 470.078,67.7401 460,54.5C 454.611,39.338 458.111,27.0046 470.5,17.5 Z"/></g>
<g><path style="opacity:1" fill="#1f2c5d" d="M 421.5,18.5 C 423.199,18.3398 424.866,18.5065 426.5,19C 427.313,20.803 428.48,22.303 430,23.5C 434.154,19.8086 438.988,18.6419 444.5,20C 447,21.1667 448.833,23 450,25.5C 453.581,40.0005 451.415,53.5005 443.5,66C 439.277,66.7867 437.111,64.9534 437,60.5C 436.835,53.3093 437.335,46.1426 438.5,39C 437.812,29.5986 435.312,29.0986 431,37.5C 430.667,44.8333 430.333,52.1667 430,59.5C 428.608,62.3942 426.441,64.3942 423.5,65.5C 421.912,64.9904 420.745,63.9904 420,62.5C 418.391,49.5701 418.058,36.5701 419,23.5C 419.366,21.5483 420.199,19.8816 421.5,18.5 Z"/></g>
<g><path style="opacity:1" fill="#202d5e" d="M 546.5,18.5 C 554.608,18.4741 560.441,22.1407 564,29.5C 567.07,39.2911 568.07,49.2911 567,59.5C 566.382,64.8033 563.548,66.9699 558.5,66C 556.513,64.6811 555.346,62.8477 555,60.5C 550.483,64.2424 545.316,65.409 539.5,64C 528.544,55.8712 528.878,48.2045 540.5,41C 544.317,39.0054 548.317,37.5054 552.5,36.5C 554.516,32.2278 553.182,29.8945 548.5,29.5C 545.767,30.3627 543.101,31.5294 540.5,33C 533.565,34.4368 531.732,31.9368 535,25.5C 537.986,21.5818 541.819,19.2485 546.5,18.5 Z"/></g>
<g><path style="opacity:1" fill="#526294" d="M 20.5,19.5 C 22.1667,19.5 23.8333,19.5 25.5,19.5C 26.2551,25.3254 23.9218,29.3254 18.5,31.5C 17.343,28.2156 17.1764,24.8823 18,21.5C 18.9947,20.9341 19.828,20.2674 20.5,19.5 Z"/></g>
<g><path style="opacity:1" fill="#1f2d5e" d="M 621.5,18.5 C 629.717,19.2009 635.217,23.5342 638,31.5C 641.498,44.4023 638.664,55.569 629.5,65C 617.403,68.3625 609.903,63.8625 607,51.5C 604.11,39.622 606.943,29.4553 615.5,21C 617.611,20.1553 619.611,19.322 621.5,18.5 Z"/></g>
<g><path style="opacity:1" fill="#dbd2b7" d="M 81.5,30.5 C 81.7959,32.403 82.4625,34.0697 83.5,35.5C 84.4607,43.2316 82.294,49.8982 77,55.5C 76.5014,59.1516 76.3347,62.8183 76.5,66.5C 73.1673,65.3591 70.1673,63.5258 67.5,61C 50.3234,60.4908 42.4901,51.6575 44,34.5C 49.5811,20.6322 59.4144,16.4655 73.5,22C 77.0705,24.0678 79.7371,26.9012 81.5,30.5 Z"/></g>
<g><path style="opacity:1" fill="#1f2c5d" d="M 293.5,5.5 C 299.352,5.18809 302.019,8.02143 301.5,14C 301.42,15.8937 301.087,17.7271 300.5,19.5C 303.5,20.3333 306.5,21.1667 309.5,22C 311.922,23.888 311.922,25.888 309.5,28C 306.464,30.0063 303.131,30.8396 299.5,30.5C 299.054,38.173 298.888,45.8396 299,53.5C 299.692,54.0253 300.192,54.6919 300.5,55.5C 303.785,56.3236 307.118,56.8236 310.5,57C 312.19,60.5254 311.524,63.5254 308.5,66C 299.396,69.6423 292.229,67.4756 287,59.5C 286.5,50.1726 286.334,40.8393 286.5,31.5C 282.51,32.3845 279.677,31.0511 278,27.5C 274.302,33.0343 270.802,38.7009 267.5,44.5C 269.667,48.1667 271.833,51.8333 274,55.5C 274.769,58.0991 274.602,60.5991 273.5,63C 271.833,63.6667 270.167,63.6667 268.5,63C 265.219,60.2454 262.053,57.4121 259,54.5C 256.513,56.2708 254.346,58.4375 252.5,61C 250.606,62.4038 248.606,63.5705 246.5,64.5C 242.853,63.5139 241.686,61.1806 243,57.5C 245.849,52.6566 248.683,47.8233 251.5,43C 248.34,37.342 246.006,31.342 244.5,25C 245.754,21.7974 248.087,20.7974 251.5,22C 255.115,25.6189 257.949,29.7856 260,34.5C 263.836,29.6318 268.003,25.1318 272.5,21C 275.827,20.0299 277.993,21.1966 279,24.5C 281.995,21.8899 285.495,20.5565 289.5,20.5C 289.335,17.4816 289.502,14.4816 290,11.5C 291.431,9.63647 292.597,7.63647 293.5,5.5 Z"/></g>
<g><path style="opacity:1" fill="#1f2c5d" d="M 500.5,20.5 C 506.05,20.2155 508.883,22.8821 509,28.5C 515.702,19.5419 522.702,19.2085 530,27.5C 530.84,30.3176 530.006,32.4843 527.5,34C 523.823,34.1078 520.157,34.1078 516.5,34C 513.272,35.5629 511.105,38.0629 510,41.5C 509.667,47.8333 509.333,54.1667 509,60.5C 503.643,68.6195 499.977,67.6195 498,57.5C 497.333,46.8333 497.333,36.1667 498,25.5C 499.094,23.9221 499.928,22.2554 500.5,20.5 Z"/></g>
<g><path style="opacity:1" fill="#202d5e" d="M 649.5,20.5 C 655.04,20.2054 657.874,22.872 658,28.5C 663.95,20.1248 670.616,19.4581 678,26.5C 678.944,29.3471 678.444,31.8471 676.5,34C 673.482,34.499 670.482,34.3323 667.5,33.5C 663.029,33.8011 660.196,36.1345 659,40.5C 658.892,47.9115 658.225,55.2448 657,62.5C 654.294,65.9779 651.294,66.3112 648,63.5C 645.645,50.9475 644.978,38.2808 646,25.5C 647.176,23.8043 648.343,22.1376 649.5,20.5 Z"/></g>
<g><path style="opacity:1" fill="#526395" d="M 223.5,27.5 C 224.496,27.4142 225.329,27.7476 226,28.5C 226.686,33.8028 224.186,36.4694 218.5,36.5C 218.109,32.2527 219.775,29.2527 223.5,27.5 Z"/></g>
<g><path style="opacity:1" fill="#536496" d="M 396.5,27.5 C 399.077,28.6899 399.91,30.6899 399,33.5C 396.874,35.3766 394.374,36.3766 391.5,36.5C 391.372,32.4153 393.039,29.4153 396.5,27.5 Z"/></g>
<g><path style="opacity:1" fill="#526294" d="M 475.5,27.5 C 476.496,27.4142 477.329,27.7476 478,28.5C 478.667,30.1667 478.667,31.8333 478,33.5C 475.453,35.8821 472.62,36.5488 469.5,35.5C 470.406,31.9383 472.406,29.2716 475.5,27.5 Z"/></g>
<g><path style="opacity:1" fill="#546597" d="M 620.5,31.5 C 625.032,30.8782 627.198,32.8782 627,37.5C 627.667,42.1667 627.667,46.8333 627,51.5C 625.994,54.8898 623.994,55.8898 621,54.5C 617.84,46.9053 617.674,39.2386 620.5,31.5 Z"/></g>
<g><path style="opacity:1" fill="#989ba8" d="M 81.5,30.5 C 83.2132,31.6354 83.8799,33.302 83.5,35.5C 82.4625,34.0697 81.7959,32.403 81.5,30.5 Z"/></g>
<g><path style="opacity:1" fill="#546597" d="M 126.5,33.5 C 130.493,33.2447 133.326,34.9114 135,38.5C 135.667,42.1667 135.667,45.8333 135,49.5C 130.836,53.7915 127.503,53.4581 125,48.5C 124.017,43.2802 124.517,38.2802 126.5,33.5 Z"/></g>
<g><path style="opacity:1" fill="#63719c" d="M 50.5,33.5 C 55.1093,32.974 59.4427,33.6407 63.5,35.5C 67.5683,33.4765 71.9016,32.9765 76.5,34C 78.3959,35.8083 78.8959,37.975 78,40.5C 75.6215,42.709 73.4548,45.0424 71.5,47.5C 68.8333,45.1667 66.1667,42.8333 63.5,40.5C 60.8494,42.6499 58.3494,44.9832 56,47.5C 53.6667,45.1667 51.3333,42.8333 49,40.5C 48.1668,37.829 48.6668,35.4957 50.5,33.5 Z"/></g>
<g><path style="opacity:1" fill="#cec7b4" d="M 51.5,36.5 C 54.5,37.8333 57.5,37.8333 60.5,36.5C 59.0027,43.3134 56.1694,44.3134 52,39.5C 51.5172,38.552 51.3505,37.552 51.5,36.5 Z"/></g>
<g><path style="opacity:1" fill="#cfc8b4" d="M 66.5,36.5 C 69.5,37.8333 72.5,37.8333 75.5,36.5C 74.0027,43.3134 71.1694,44.3134 67,39.5C 66.5172,38.552 66.3505,37.552 66.5,36.5 Z"/></g>
<g><path style="opacity:1" fill="#526395" d="M 20.5,42.5 C 22.1667,42.5 23.8333,42.5 25.5,42.5C 25.6879,47.9813 23.0212,50.9813 17.5,51.5C 17.3367,49.1432 17.5034,46.8098 18,44.5C 18.9947,43.9341 19.828,43.2674 20.5,42.5 Z"/></g>
<g><path style="opacity:1" fill="#546597" d="M 551.5,45.5 C 552.5,45.5 553.5,45.5 554.5,45.5C 554.781,51.5612 551.781,54.2279 545.5,53.5C 545.626,49.3796 547.626,46.713 551.5,45.5 Z"/></g>
</svg>
