<?xml version="1.0" encoding="UTF-8"?>
<!DOCTYPE svg PUBLIC "-//W3C//DTD SVG 1.1//EN" "http://www.w3.org/Graphics/SVG/1.1/DTD/svg11.dtd">
<svg xmlns="http://www.w3.org/2000/svg" version="1.1" width="220px" height="222px" style="shape-rendering:geometricPrecision; text-rendering:geometricPrecision; image-rendering:optimizeQuality; fill-rule:evenodd; clip-rule:evenodd" xmlns:xlink="http://www.w3.org/1999/xlink">
<g><path style="opacity:1" fill="#55679C" d="M 24.5,-0.5 C 81.1667,-0.5 137.833,-0.5 194.5,-0.5C 200.486,1.91489 205.986,5.24823 211,9.5C 214.388,13.6087 216.721,18.2754 218,23.5C 218.5,78.1657 218.667,132.832 218.5,187.5C 217.999,204.161 209.666,214.328 193.5,218C 137.167,218.667 80.8333,218.667 24.5,218C 10.3437,214.015 2.01033,204.848 -0.5,190.5C -0.5,136.5 -0.5,82.5 -0.5,28.5C 2.01238,13.8049 10.3457,4.13827 24.5,-0.5 Z"/></g>
<g><path style="opacity:1" fill="#ffffff" d="M 52.5,33.5 C 77.1689,33.3334 101.836,33.5 126.5,34C 160.789,37.4204 172.956,55.5871 163,88.5C 157.978,96.1827 151.145,101.683 142.5,105C 166.486,112.453 175.986,128.619 171,153.5C 165.31,171.785 152.81,181.618 133.5,183C 106.47,183.193 79.4702,183.693 52.5,184.5C 53.8286,134.169 53.8286,83.8361 52.5,33.5 Z"/></g>
<g><path style="opacity:1" fill="#55679C" d="M 125.5,56.5 C 138.396,60.6357 142.896,69.3024 139,82.5C 136.235,88.9308 131.402,92.7642 124.5,94C 109.837,94.4999 95.1705,94.6666 80.5,94.5C 80.5,81.8333 80.5,69.1667 80.5,56.5C 95.5,56.5 110.5,56.5 125.5,56.5 Z"/></g>
<g><path style="opacity:1" fill="#55679C" d="M 125.5,56.5 C 110.5,56.5 95.5,56.5 80.5,56.5C 80.5,69.1667 80.5,81.8333 80.5,94.5C 79.5045,81.6774 79.1712,68.6774 79.5,55.5C 95.0091,55.1705 110.342,55.5038 125.5,56.5 Z"/></g>
<g><path style="opacity:1" fill="#55679C" d="M 80.5,116.5 C 95.1705,116.333 109.837,116.5 124.5,117C 141.251,119.791 147.751,129.624 144,146.5C 140.887,154.799 135.054,159.466 126.5,160.5C 111.167,160.5 95.8333,160.5 80.5,160.5C 80.5,145.833 80.5,131.167 80.5,116.5 Z"/></g>
<g><path style="opacity:1" fill="#55679C" d="M 80.5,116.5 C 80.5,131.167 80.5,145.833 80.5,160.5C 95.8333,160.5 111.167,160.5 126.5,160.5C 111.009,161.496 95.3422,161.83 79.5,161.5C 79.1706,146.324 79.5039,131.324 80.5,116.5 Z"/></g>
</svg>
